<?xml version="1.0" encoding="UTF-8"?>
<svg id="Capa_2" data-name="Capa 2" xmlns="http://www.w3.org/2000/svg" viewBox="0 0 698.48 703.35">
  <g id="Capa_1-2" data-name="Capa 1">
    <g>
      <g>
        <path d="m628.92,537.63c1.09-5.55,4.07-10.23,8.94-14.04,3.65-2.86,7.74-1.68,11.47-.04.91.39,1.6.15,2.06-.73l5.33-10.1c.36-.68.15-1.53-.5-1.96-4.3-2.87-6.96-6.13-5.79-11.67,1-4.77,3.25-8.92,6.76-12.45,2.72-2.74,7.32-1.92,10.66-1.67.96.08,1.85-.49,2.17-1.39l3.52-9.62c.21-.58-.03-1.23-.57-1.52-6.39-3.48-9.26-6.93-7.08-14.92,1.29-4.71,2.4-8.06,3.33-10.06,2.64-5.68,8.13-4.93,13.33-4.82,1.17.03,1.94-.59,2.32-1.86,2.25-7.46,3.75-14.29,4.5-20.5.04-.33-.18-.63-.51-.69-3.63-.62-8.05-1.56-10.27-4.73-2.92-4.18-.52-17.24.91-20.86,2.11-5.37,6.93-5.22,11.49-5.8.69-.09,1.22-.63,1.3-1.31l1.29-10.87c.07-.59-.18-.97-.74-1.14-3.34-1.07-8.71-2.93-9.02-7.13-.34-4.57-.29-9.65.16-15.26.58-7.38,7.17-6.9,12.36-8.31.75-.21,1.13-.7,1.13-1.47.02-6.97.08-15.87-1.83-22.27-.1-.33-.32-.5-.67-.51-.93-.02-2.42-.04-4.45-.07-8.59-.1-9.43-5.8-10.51-13.34-.59-4.06-.82-7.32-.7-9.77.28-5.93,5.91-7.74,10.5-9.58.41-.17.64-.61.54-1.04l-5.22-22.56c-.15-.62-.54-.92-1.17-.89-5.66.21-10.52.91-13-5.37-1.76-4.46-4.06-11.21-3.85-15.47.19-4.1,4.58-7.31,8.13-8.79.33-.13.49-.51.37-.85l-6.16-16.92c-.24-.63-.83-1.06-1.5-1.07-3.02-.04-8.28.1-10.5-2.1-3.39-3.35-5.51-7.8-6.36-13.37-.47-3.03,2.05-5.57,4.12-7.19.78-.61,1.03-1.67.61-2.56l-4.7-9.98c-.3-.64-1.02-.96-1.69-.75-3.51,1.07-8.34,2.46-11.4-.19-3.79-3.28-6.61-7.47-8.46-12.57-1.6-4.4,1.22-7.37,3.93-10.2.52-.54.64-1.35.32-2.02-1.75-3.63-3.99-6.93-6.7-9.9-.23-.25-.57-.34-.89-.25-2.33.69-7.8,2.71-9.66,1.62-4.71-2.79-8.25-6.59-10.64-11.4-2.69-5.43-.19-8.56,2.89-12.65.42-.56.4-1.34-.05-1.89l-5.38-6.49c-.25-.31-.55-.36-.9-.14-2.76,1.75-6.67,4.85-9.98,3.63-5.83-2.16-12.78-8.43-15.49-13.8-2.56-5.06-1.73-9.56-.72-14.92.12-.64-.09-1.29-.56-1.73-6.08-5.8-12.61-11.05-19.58-15.74-.26-.18-.62-.12-.82.13-4.19,5.31-10.32,8.68-16.82,4.81-7.98-4.76-18.64-10.95-17.65-21.54.19-1.96.21-3.73.08-5.32-.03-.34-.2-.65-.46-.86-.84-.67-1.73-1.28-2.67-1.82-6.29-3.62-12.68-6.97-19.17-10.04-.24-.11-.53,0-.63.24-1.88,4.4-7.22,11.02-12.71,9.74-3.43-.8-16.76-5.25-18.04-9.44-.91-2.95.36-9.54-3.65-11.86-1.79-1.03-3.64-1.9-5.55-2.63-.44-.17-.94,0-1.19.4-2.74,4.35-6.28,8.47-12.07,7.27-3.02-.62-5.51-1.62-7.46-3.01-4.25-3.01-3.55-8.19-4.01-13.2-.03-.35-.22-.56-.57-.63l-12.42-2.53c-.54-.11-1.07.23-1.2.76-1.65,6.95-3.67,10.89-11.86,9.52-6.16-1.03-12.33-2.01-18.5-2.94-9.48-1.42-7.66-5.54-8.11-13.17-.02-.45-.25-.7-.7-.75l-11.04-1.39c-.63-.07-1.02.19-1.17.8-1.4,5.52-3.46,10.68-9.98,11.55-2.07.28-7.15.2-15.24-.23-2.74-.15-4.87-1.74-6.4-4.77-1.19-2.35-2.26-4.78-3.22-7.29-.13-.32-.36-.46-.7-.41l-11.4,1.56c-.5.07-.85.52-.8,1.02.22,2.41.93,7.39.06,9.64-.11.3-.33.55-.61.7-2.48,1.37-4.7,2.16-6.67,2.39-8.83,1.01-17.6,2.41-26.31,4.21-6.41,1.32-8.27-6.19-9.25-10.75-.1-.46-.56-.74-1.02-.64l-11.37,2.7c-.73.17-1.26.79-1.31,1.53-.59,7.92.84,11.67-7.92,14.94-6.71,2.5-11.16-1.55-14.93-6.68-.22-.3-.61-.42-.96-.31-4.2,1.35-9.75,3.47-10.12,8.7-.2,2.94.43,7.01-2.56,8.81-5.28,3.18-15.96,9.35-20.96,3.89-2.2-2.41-4.11-4.9-5.74-7.48-.3-.48-.91-.66-1.43-.42-6.9,3.13-13.51,6.78-19.82,10.97-.65.42-.97,1.2-.82,1.96,1.68,8.56-.03,13.29-6.73,19.01-2.65,2.25-13.64,9.79-17.76,9.77-4.81-.02-8.71-3.54-11.94-6.66-.46-.44-1.18-.47-1.68-.07l-18.47,14.92c-.29.23-.43.61-.36.98.19,1.05.54,2.47,1.05,4.26,3.08,10.95-6.08,20.82-15.5,25.34-4.86,2.34-8.41-.32-12.01-3.21-.22-.18-.54-.15-.72.07l-5.85,6.89c-.4.47-.4,1.15,0,1.61,1.92,2.26,5.74,6.69,4.69,9.83-1.77,5.32-5.09,9.83-9.96,13.52-3.4,2.57-8.46.85-11.66-1.18-.29-.18-.67-.13-.89.13-2.89,3.36-5.3,7.03-7.24,11-.1.21-.06.45.09.61,1.91,2.12,5.91,5.75,5,8.94-1.5,5.28-4.22,9.9-8.15,13.85-3.42,3.44-8.04,2.48-11.92.96-.41-.16-.88.01-1.09.4l-5.54,10.15c-.26.49-.12,1.1.34,1.41,3.18,2.18,5.75,4.86,4.81,9.22-1.17,5.42-4.92,14.96-11.51,14.98-2.1,0-4.26.1-6.49.3-.29.02-.54.21-.64.48l-5.96,16.21c-.19.53.06,1.12.57,1.36,3.86,1.79,8.16,4.09,8.2,9.06,0,2.51-.95,6.63-2.9,12.38-2.83,8.35-6.79,9.03-14.78,7.78-.51-.08-.99.24-1.11.74l-5.27,23.15c-.1.43.15.87.57,1.01,3.18,1.05,8.28,2.9,10.25,5.81,2.55,3.75-.56,18.94-1.56,21.77-1.98,5.6-7.83,5.5-12.65,5.46-.65-.01-1.01.31-1.09.95-.95,7.48-1.43,14.99-1.43,22.53,0,.33.17.51.5.53,5.01.31,12.49,1.83,13.03,8.01.49,5.67.59,10.91.29,15.74-.28,4.59-6.12,5.8-9.67,6.75-.65.17-.94.6-.87,1.27l1.31,11.46c.03.32.21.5.52.53,5.08.55,11.2.81,12.93,6.99.8,2.86,1.52,7.53,2.17,14,.71,7.12-5.96,9.58-11.51,10.74-.6.12-.98.71-.85,1.31l4.72,21.17c.08.37.3.54.67.52,2.96-.11,10.63-.36,12.79,2.05,2.69,3,8.36,18.47,5.62,21.76-2.13,2.55-4.61,4.58-7.45,6.07-.33.17-.48.56-.36.91l3.76,10.91c.11.34.35.48.7.43,4.47-.71,9.77-1.21,13.04,2.34,2.65,2.86,8.2,15.17,5.43,18.76-1.76,2.28-3.79,4.22-6.09,5.81-.38.26-.51.77-.3,1.18l5.46,10.73c.23.44.75.64,1.21.46,5.73-2.24,10.14-3.43,14.28,2.34,2.62,3.65,4.29,6.23,5.01,7.73,3.04,6.36-.21,7.98-3.34,12.37-.19.27-.25.57-.17.9.79,3.29,4.34,7.07,6.27,10.04.2.31.47.39.8.25,2.26-.95,4.76-2.22,7.06-2.49,5.86-.69,12.63,9.24,14.62,13.79,2.28,5.23-.77,7.8-3.42,11.66-.22.32-.2.74.06,1.03l4.45,4.93c.33.36.85.47,1.29.27,4.88-2.19,8.5-3.92,13.65-.75,9.61,5.93,15.83,15.78,10.61,27.19-.25.55-.15,1.2.27,1.64,5.88,6.22,12.32,11.79,19.33,16.72.45.32,1.05.29,1.47-.06,4.9-4.12,9.56-8.01,16.48-5.67,3.09,1.05,6.93,3.39,11.51,7.04,7.53,6,6.91,11.56,6,20.06-.06.62.22,1.22.73,1.56,6.43,4.35,13.18,8.16,20.24,11.41.67.31,1.47.16,1.99-.37,4.7-4.81,8.61-8.62,16.07-7.66,4.79.62,9.45,2.61,13.97,5.97,5.52,4.09,6.17,11.15,5.7,17.43-.02.36.2.69.54.8,8.62,2.93,17.29,5.46,26.02,7.59,1.21.29,2.46.5,3.77.63.32.03.63-.14.77-.43,6.12-12.1,17.4-11.02,28.4-6.84,7.45,2.83,8.91,9.32,10.25,16.31.07.34.35.6.7.63l26.65,2.42c.74.06,1.43-.38,1.67-1.08,2.07-5.9,4.44-11.48,11.64-12.26,4.3-.47,8.6-.5,12.91-.11,7.68.7,9.91,6.46,12.33,12.64.11.29.38.48.68.49,2.37.11,4.29.09,5.74-.05,6.95-.65,13.81-1.34,20.57-2.07.66-.07,1.22-.54,1.4-1.18,2.07-7.36,3.56-13.35,11.74-16.04,7.5-2.47,17.5-4.47,23.32,2.57,1.35,1.63,2.26,3.28,2.75,4.93.25.85.79,1.15,1.64.88l28.73-9.01c.4-.12.6-.39.59-.81-.07-4.22.26-7.56,1.01-10.01,2.21-7.31,10.94-11.46,18.01-13.2,7.15-1.76,12.6,2.03,16.91,7.29.2.25.55.32.84.18,7.11-3.35,13.98-7.13,20.61-11.35.63-.4.99-1.11.94-1.86-.52-7.22-.89-13.89,5.11-19.11,3.8-3.31,8.91-6.66,13.98-7.96,5.94-1.52,10.68,1.76,14.71,5.63.36.35.92.38,1.32.08,6.64-4.94,12.9-10.32,18.79-16.15.25-.25.33-.56.24-.91-1.92-6.78-2.19-13.04,1.71-18.86,3.02-4.52,11.25-12.13,17.7-10.65,1.09.25,2.66.86,4.69,1.83.29.14.64.13.92-.03,1.49-.87,2.77-1.99,3.86-3.34,1.62-2.01-.34-3.98-1.35-5.61-1.99-3.22-2.29-6.31-.54-9.76,3.62-7.13,11.46-16.28,20.41-10.78.79.49,1.83.28,2.37-.48l5.86-8.17c.47-.65.38-1.55-.21-2.09-2.06-1.92-5.34-5.3-4.76-8.3" vector-effect="non-scaling-stroke" style="fill: none; stroke: #865018; stroke-width: 2px;"/>
        <path d="m649.49,234.52c-9.5-25.56-23.94-50.14-40.32-71.86-23.89-31.67-52.4-58.42-85.53-80.23-32.72-21.55-67.85-35.87-104.08-44.73-34.35-8.41-73.84-11.8-108.76-6.13-14.35,2.33-24.85,4.31-31.5,5.94-38.18,9.31-73.69,24.73-106.54,46.26-10.55,6.91-17.46,11.65-20.72,14.22-20.98,16.53-40.19,35.64-57.64,57.35-31.01,38.59-50.82,82.07-59.43,130.43-6.66,37.4-7.87,74.66-1.92,112.24,2.02,12.78,3.91,23.05,5.66,30.8,4.67,20.67,11.82,41.26,21.44,61.78,17.47,37.29,43.64,70.58,73.66,98.55,4.79,4.45,9.86,8.77,15.21,12.95,36.7,28.65,78.45,51.54,123.97,62.6,42.77,10.4,85.01,12.64,128.5,5.16,6.58-1.13,13.88-2.86,20.79-4.37,6.01-1.32,11.15-2.64,15.42-3.96,59.15-18.25,111.94-52.93,153.54-100.56,37.32-42.74,62.49-92.57,72.15-148.69,2.41-13.99,4.04-25.25,4.89-33.76,4.75-47.58-2.29-99.55-18.79-143.99" vector-effect="non-scaling-stroke" style="fill: none; stroke: #865018; stroke-width: 2px;"/>
        <path d="m172.89,172.32c4.87-11.03,2.26-24.72-6.95-32.26-8.57-7.01-21.33-5.43-29.78,2.07-3.05,2.7-6,5.49-8.86,8.38-10.92,11.03-21.94,22.3-31.85,34.26-.51.62-.45,1.53.14,2.07l42.58,39.08c.29.26.32.72.08,1.08-18.02,26.85-30.63,56.11-37.82,87.79-1.9,8.36-3.07,15.54-3.5,21.55-.59,8.19-1.45,16.72-1.4,24.58.11,17.75,1.48,36.09,5.72,53.35,13.76,55.96,45.27,106.02,92.47,139.8,5.76,4.12,11.61,8.1,17.55,11.94,30.87,19.93,64.46,32.88,100.77,38.85,10.8,1.77,23.64,2.82,38.53,3.13,9.59.2,20.46-.75,29.56-1.9,45.84-5.78,88.89-24.71,125.99-52.24,41.73-30.96,71.94-74.28,87.98-123.81,15.73-48.58,13.33-103.05-5.51-150.38-12.64-31.78-29.38-60.09-52.93-85.2-.26-.27-.29-.56-.08-.87.63-.95,1.39-1.79,2.28-2.54,8.24-6.89,16.35-13.76,24.33-20.6.37-.32.93-.28,1.25.09l20.2,22.62c.43.47,1.16.52,1.64.1l12.32-10.69c.21-.18.24-.5.06-.71-16.1-19.75-34.12-38.57-52.07-56.64-1.31-1.32-2.99-2.71-5.04-4.17-.24-.18-.58-.16-.81.05l-10.46,9.89c-.66.62-.68,1.25-.05,1.9l17,17.65c.29.31.28.79-.04,1.07l-28.33,24.95c-.3.27-.58.25-.84-.06-1.91-2.29-4.12-4.22-6.65-5.81-.32-.2-.66-.25-1.02-.14-5.05,1.52-16.68,9.34-9.6,15.27,35.4,29.68,62.67,69.93,76.37,114.5,15.32,49.86,12.33,98.93-8.97,147.2-27.24,61.74-80.09,106.5-143.12,129.23-19.59,7.06-39.37,11.03-59.93,12.47-57.37,4.02-112.48-15.86-157.91-49.38-26.92-19.86-48.92-44.02-64.93-73.8-10.24-19.05-18.38-39.27-22.59-60.29-10.46-52.27-.58-105.31,24.94-151.84,23.42-42.71,59.16-75.13,101.39-97.47,23.46-12.42,49.37-21.08,75.62-23.92,4.38-.47,8.77-.87,13.17-1.19,3.55-.25,5.81-6.26,7.3-9.07.14-.27.37-.41.68-.42l16.57-.31c.54,0,1.05.27,1.31.74l4.68,8.19c.34.6.96.99,1.64,1.04,10.13.74,20.49,1.83,30.32,4,20.87,4.6,40.85,11.8,59.94,21.59,2.87,1.47,8.48,4.65,16.84,9.54,1.49.87,2.9,1.25,4.24,1.14,4.71-.36,9.25-4.62,10.7-8.49,1.78-4.76-3.15-8.08-6.29-10.43-.23-.17-.13-.55.16-.57,3.72-.29,10.61-6,8.7-10.27-2.59-5.77-7.99-11.55-15.01-8.66-4.21,1.73-6.82,4.01-11.69,3.25-9.31-1.44-20.41-9.47-19.28-19.81.66-6.06,5.13-12.47,10.51-15.32,4.55-2.42,9.52-2.67,14.93-.76,7.95,2.81,17.3,8.47,19.6,16.9.44,1.62,1.13,2.53,2.48,3.33,3.01,1.79,11.61,6.19,14.48,3.41,3.69-3.58,7.16-7.37,10.43-11.36.21-.26.23-.63.04-.91-2.28-3.39-4.37-4.87-8.51-8.23-11.23-9.11-23.4-16.74-36.49-22.9-20.07-9.44-39.72-1.26-47.49,19.24-3.58,9.47-4.73,18.37.62,27.08.19.31-.1.68-.44.58-10.41-3.15-20.97-5.72-31.68-7.71-.63-.11-1.18-.53-1.46-1.12-9.45-19.95-19-39.84-28.63-59.67-.95-1.97-2.11-3.81-3.47-5.53-.21-.27-.5-.41-.85-.41l-21.88.11c-1.03.01-1.96.61-2.38,1.55l-28.75,64.17c-.16.35-.49.6-.87.65-26.07,3.3-49.91,12.41-73.07,24.32-.4.21-.89.05-1.1-.34l-4.77-8.9c-.27-.5-.07-1.13.44-1.39,12.04-6.08,24.3-11.67,36.79-16.77.28-.11.4-.44.27-.71l-7.23-14.33c-.21-.41-.52-.53-.95-.34l-35.5,15.58c-.33.15-.57.06-.73-.26l-4.42-8.86c-.2-.4-.1-.85.23-.99l52.31-22.74c.49-.21.71-.78.5-1.27l-6.54-14.81c-.12-.28-.44-.41-.73-.31-19.97,7.33-39.43,15.87-58.38,25.62-6.02,3.1-11.91,6.58-17.67,10.43-.37.24-.49.73-.29,1.13l26.73,52.66c.26.51.09,1.14-.39,1.46-7.6,4.98-14.82,10.14-23.25,13.35-4.33,1.65-8.75,3.27-13.26,4.86-1.04.37-1.34.05-.89-.96" vector-effect="non-scaling-stroke" style="fill: none; stroke: #858496; stroke-width: 2px;"/>
        <path d="m298.17,285.77c-.16.36-.58.52-.94.36-4.27-1.93-8.57-3.8-12.9-5.61-33.35-13.97-66.48-28.42-99.4-43.37-4.43-2.02-7.67-.7-9.16,3.89-1.37,4.21.27,7.3,4.91,9.28,36.7,15.62,73.16,32.17,110.02,47.01.62.25.89.98.59,1.57-3.86,7.72-7.44,15.4-10.75,23.03-1.93,4.47-3.08,8.08-3.43,10.83-.98,7.61,5.2,12.6,9.98,17.48.19.19.52.06.53-.21.1-2.74-.11-5.62.25-8.22.98-7.09,2.71-13.11,5.19-18.04,8.09-16.11,16.14-32.25,24.13-48.41,2.12-4.28,3.24-8.23,3.36-11.85.63-19.16,1.3-52.6,2.01-100.31.04-2.42-.18-4.18-.65-5.27-1.67-3.9-7.31-5.21-10.13-1.74-1.43,1.74-1.7,4.08-1.74,6.32-.6,33.33-1.35,66.67-2.25,100-.04,1.37-.61,3.71-1.32,5.21-2.85,6.02-5.62,12.04-8.3,18.05" vector-effect="non-scaling-stroke" style="fill: none; stroke: #865018; stroke-width: 2px;"/>
        <path d="m385.97,160.46c.07-3.26-2.52-5.97-5.77-6.04h-.28c-3.26-.08-5.97,2.51-6.04,5.77l-.99,43.79c-.07,3.26,2.52,5.97,5.77,6.04h.28c3.26.08,5.97-2.51,6.04-5.77l.99-43.79" vector-effect="non-scaling-stroke" style="fill: none; stroke: #865018; stroke-width: 2px;"/>
        <path d="m440.78,344.88c-.16.45-.74.58-1.08.23-4.77-4.91-9.53-9.68-14.3-14.29-1.6-1.55-2.96-3.68-3.87-5.76-2.9-6.63-6.06-13.12-9.49-19.49-1.33-2.46-3.03-4.47-5.12-6.03-.45-.33-.41-1.01.06-1.3,2.03-1.25,4.14-2.32,6.33-3.23,34.93-14.49,69.8-29.14,104.61-43.94,2.29-.97,3.77-1.89,4.45-2.76,3.66-4.71.6-11.94-5.25-11.53-1.25.09-3.35.84-6.32,2.26-5.45,2.59-9.9,4.63-13.37,6.1-14.08,6-44.23,18.8-90.46,38.39-4.66,1.98-8.75,3.61-12.04,7.64-.54.66-1.4.94-2.22.73-1.17-.31-2.41-.74-3.74-1.3-10.02-4.25-20.33-7.6-30.93-10.05-1.77-.41-3.36-.65-4.76-.73-1.09-.07-1.21-.44-.35-1.13,8.94-7.08,20.53-14.47,27.77-19.49,7.81-5.4,15.61-10.83,23.4-16.29,6.77-4.74,9.41-7.62,12.55-14.76,6.62-15.02,13.18-30.06,19.68-45.13,1.12-2.59,1.59-4.93,1.42-7-.54-6.59-8.98-8.26-11.66-1.96-6.7,15.76-13.44,31.51-20.22,47.24-1.87,4.35-5.15,8.09-9.82,11.2-6.1,4.06-20.96,14.38-44.57,30.95-5.64,3.95-10.28,8.22-13.92,12.8-4.8,6.04-10.14,14.93-13.74,22.76-.18.39-.07.5.32.31,6.75-3.31,13.83-5.92,21.22-7.85,1.47-.39,2.54-.53,3.19-.43,15.58,2.41,30.21,8.03,44.51,14.5,5.5,2.49,9.45,6.58,11.86,12.25,2.37,5.62,3.65,11.5,8.16,15.94,7.05,6.96,13.68,13.65,21.31,20.67,7.69,7.07,15.19,14.32,22.52,21.75,3.15,3.19,5.86,5.29,8.14,6.31,15.96,7.12,42.44,18.23,79.43,33.32,4.01,1.63,8.26,2.8,10.33-1.76,2.24-4.93-.98-8.73-5.33-10.46-23.38-9.33-46.62-18.99-69.73-28.97-4.98-2.15-10.75-3.36-14.57-7.45-3.82-4.09-7.68-8.15-11.58-12.16-.75-.77-1.35-1.66-1.8-2.66-.12-.26-.13-.55-.03-.82,3.46-9.63,13.13-10.94,21.63-14.13,24.91-9.33,49.72-18.9,74.44-28.72,3.86-1.54,7.38-4.68,6.32-8.92-1.08-4.32-5.17-6.12-9.34-4.47-29.63,11.71-59.33,23.22-89.08,34.55-7.42,2.82-12.41,7.84-14.96,15.07" vector-effect="non-scaling-stroke" style="fill: none; stroke: #865018; stroke-width: 2px;"/>
        <path d="m266.28,187.42c4.17-1.32,6.45-5.9,5.09-10.24-1.37-4.34-5.86-6.8-10.04-5.47-4.17,1.32-6.45,5.9-5.09,10.24,1.37,4.34,5.86,6.8,10.04,5.47" vector-effect="non-scaling-stroke" style="fill: none; stroke: #865018; stroke-width: 2px;"/>
        <path d="m288.62,205.36c0-4.32-3.51-7.83-7.83-7.83s-7.83,3.51-7.83,7.83,3.51,7.83,7.83,7.83,7.83-3.51,7.83-7.83" vector-effect="non-scaling-stroke" style="fill: none; stroke: #865018; stroke-width: 2px;"/>
        <path d="m212.93,210.55c-2.4-2.57-6.43-2.7-9-.3l-.28.26c-2.57,2.41-2.7,6.44-.3,9l17.7,18.91c2.4,2.57,6.43,2.7,9,.3l.28-.26c2.57-2.41,2.7-6.44.3-9l-17.7-18.91" vector-effect="non-scaling-stroke" style="fill: none; stroke: #865018; stroke-width: 2px;"/>
        <path d="m495.75,212.39c-2.41-2.42-6.32-2.43-8.74-.03l-18.86,18.73c-2.42,2.41-2.44,6.32-.03,8.74l.49.5c2.41,2.42,6.32,2.43,8.74.03l18.86-18.73c2.42-2.41,2.44-6.32.03-8.74l-.49-.5" vector-effect="non-scaling-stroke" style="fill: none; stroke: #865018; stroke-width: 2px;"/>
        <path d="m288.92,234.08c1.86,0,3.36-1.67,3.35-3.69,0-2.03-1.54-3.66-3.41-3.65-1.86,0-3.36,1.67-3.35,3.69,0,2.03,1.54,3.66,3.41,3.65" vector-effect="non-scaling-stroke" style="fill: none; stroke: #865018; stroke-width: 2px;"/>
        <path d="m100.5,251.34c0-9.84-7.98-17.82-17.82-17.82s-17.82,7.98-17.82,17.82,7.98,17.82,17.82,17.82,17.82-7.98,17.82-17.82" vector-effect="non-scaling-stroke" style="fill: none; stroke: #858496; stroke-width: 2px;"/>
        <path d="m630.63,260.43c4.88-8.48,1.77-19.41-6.93-24.42-8.71-5.01-19.71-2.19-24.59,6.29-4.88,8.48-1.77,19.41,6.93,24.42,8.71,5.01,19.71,2.19,24.59-6.29" vector-effect="non-scaling-stroke" style="fill: none; stroke: #858496; stroke-width: 2px;"/>
        <path d="m297.34,248.59c1.71-.12,2.99-1.72,2.86-3.57-.13-1.85-1.62-3.25-3.33-3.14-1.71.12-2.99,1.72-2.86,3.57.13,1.85,1.62,3.25,3.33,3.14" vector-effect="non-scaling-stroke" style="fill: none; stroke: #865018; stroke-width: 2px;"/>
        <path d="m291.21,413.04c-3.07,1.01-6.16,2.19-9.27,3.52-32.26,13.81-64.56,27.54-96.9,41.18-5.74,2.42-9.35,4.05-10.82,4.9-7.87,4.53-3.81,16.56,5.51,12.31,4.75-2.17,9.54-4.28,14.35-6.33,33.43-14.23,66.88-28.41,100.35-42.56,3.43-1.45,6.7-2.96,9.81-4.53.95-.48,2.06-.52,3.04-.11,11.88,4.99,24.59,10.31,37.34,12.46,1.78.31,1.87.87.26,1.69-.47.25-1.13.64-1.96,1.18-17.8,11.53-35.37,23.4-52.71,35.62-4.36,3.07-7.5,6.69-9.42,10.86-5.74,12.41-13.37,29.88-22.89,52.42-.51,1.19-1.03,2.81-1.58,4.85-1.22,4.55,3.37,8.47,7.54,7.35,2.38-.64,3.79-2.65,4.74-4.81,7.32-16.77,14.55-33.57,21.69-50.41,1.63-3.84,4-6.93,7.12-9.26,8.29-6.19,17.76-12.83,28.39-19.91,8.81-5.88,17.49-11.95,26.04-18.21,4.87-3.57,8.18-6.5,9.92-8.79,5.24-6.91,9.9-14.37,13.99-22.38.62-1.22.32-1.52-.9-.9-6.33,3.22-13.09,5.47-19.7,8.35-2.55,1.12-4.26,1.48-6.84,1.08-15.83-2.43-29.69-9.32-45.41-17.22-7.55-3.8-11.63-17.97-13.81-25.1-1.41-4.63-2.96-7.27-6.19-10.38-12.81-12.37-25.66-24.67-38.57-36.92-2.99-2.84-5.67-4.76-8.02-5.75-26.69-11.3-53.62-22.08-80.25-33.49-2.67-1.15-5.75-1.82-8.14.32-4.29,3.85-2.3,9.53,2.72,11.6,20.5,8.49,41.05,16.84,61.46,25.55,5.95,2.54,11.94,4.97,17.98,7.3,8.42,3.25,13.89,11.01,20.01,17.2.61.62.6,1.48-.03,2.58-5.9,10.24-11.43,11.87-23.61,16.35-34.66,12.75-60.51,22.49-77.54,29.21-4.56,1.8-6.4,7.72-2.77,11.29,3.9,3.84,9.92-.05,14.18-1.61,27.71-10.16,55.33-20.57,82.86-31.24,9.22-3.57,12.78-9.12,16.81-17.56.17-.37.42-.42.74-.16,4.64,3.81,9.08,7.85,13.31,12.11.84.85,1.66,2.21,1.94,3.17,3.06,10.74,7.92,22.78,15.55,32.1.3.37.14.93-.32,1.08" vector-effect="non-scaling-stroke" style="fill: none; stroke: #865018; stroke-width: 2px;"/>
        <path d="m87.05,448.63c-4.54-12.18-8.22-24.14-10.74-37.06-2.69-13.83-4.28-26.35-4.75-37.56-.9-21.27,1.23-41.93,5.43-62.76,1.08-5.36-3.54-9.09-8.42-9.18-5.73-.11-6.13,4.79-7.01,8.98-3.57,16.97-5.48,34.12-5.72,51.45-.05,3.2.1,7.03.44,11.5,1.08,14.29,2.31,29.1,5.88,43.71,3.35,13.69,7.28,27.21,11.79,40.58.51,1.51,1.19,2.94,2.04,4.31,3.94,6.35,12.81,3.54,14.27-3.07.15-.69.11-1.42-.11-2.1-.96-2.9-1.99-5.83-3.1-8.8" vector-effect="non-scaling-stroke" style="fill: none; stroke: #858496; stroke-width: 2px;"/>
        <path d="m610.65,450.67c-.73,1.88-1.39,3.79-1.96,5.72-2.23,7.54,11.4,15.2,15.36,4.1,9.65-27.05,15.66-53.81,18.04-80.28,2.11-23.52-.67-48.68-5.7-71.71-.95-4.39-3.27-6.5-6.95-6.31-5.57.28-9,3.97-7.65,9.8,3.76,16.22,5.69,32.98,5.78,50.28.08,13.94-1.73,29.81-4.07,43.23-2.54,14.66-6.82,29.72-12.85,45.17" vector-effect="non-scaling-stroke" style="fill: none; stroke: #858496; stroke-width: 2px;"/>
        <path d="m393.63,356.96c0-24.53-19.89-44.42-44.42-44.42s-44.42,19.89-44.42,44.42,19.89,44.42,44.42,44.42,44.42-19.89,44.42-44.42" vector-effect="non-scaling-stroke" style="fill: none; stroke: #865018; stroke-width: 2px;"/>
        <path d="m144.3,366.61c4.35-1.24,6.81-5.95,5.51-10.53-1.31-4.58-5.89-7.29-10.23-6.05-4.35,1.24-6.81,5.95-5.51,10.53,1.31,4.58,5.89,7.29,10.23,6.05" vector-effect="non-scaling-stroke" style="fill: none; stroke: #865018; stroke-width: 2px;"/>
        <path d="m561.5,366.6c4.14-1.4,6.31-6.02,4.86-10.3-1.45-4.29-5.98-6.63-10.12-5.23-4.14,1.4-6.31,6.02-4.86,10.3,1.45,4.29,5.98,6.63,10.12,5.23" vector-effect="non-scaling-stroke" style="fill: none; stroke: #865018; stroke-width: 2px;"/>
        <path d="m515.02,365.55c3.38-1.68,4.7-5.9,2.95-9.45-1.76-3.54-5.93-5.04-9.31-3.36-3.38,1.68-4.7,5.9-2.95,9.45,1.76,3.54,5.93,5.04,9.31,3.36" vector-effect="non-scaling-stroke" style="fill: none; stroke: #865018; stroke-width: 2px;"/>
        <path d="m192.49,364.72c2.96-1.18,4.32-4.75,3.04-7.97-1.29-3.21-4.73-4.86-7.7-3.68-2.96,1.18-4.32,4.75-3.04,7.97,1.29,3.21,4.73,4.86,7.7,3.68" vector-effect="non-scaling-stroke" style="fill: none; stroke: #865018; stroke-width: 2px;"/>
        <path d="m488.03,363.02c2.02-.57,3.13-2.89,2.48-5.18-.65-2.3-2.81-3.69-4.83-3.11-2.02.57-3.13,2.89-2.48,5.18.65,2.3,2.81,3.69,4.83,3.11" vector-effect="non-scaling-stroke" style="fill: none; stroke: #865018; stroke-width: 2px;"/>
        <path d="m212.94,362.99c1.84-.59,2.78-2.75,2.11-4.82-.67-2.07-2.7-3.27-4.53-2.68-1.84.59-2.78,2.75-2.11,4.82.67,2.07,2.7,3.27,4.53,2.68" vector-effect="non-scaling-stroke" style="fill: none; stroke: #865018; stroke-width: 2px;"/>
        <path d="m402.57,424.67c.27-.54.91-.77,1.47-.53,26.08,11.42,52.04,22.92,78.13,34.11,12.49,5.36,24.87,10.95,37.16,16.76,2.29,1.08,4.38.92,6.29-.49,5.54-4.1,1.87-10.72-3.11-12.91-37.41-16.45-74.94-32.77-112.58-48.95-.5-.22-.74-.8-.52-1.31,3.63-8.32,7.29-16.7,10.98-25.15,5.37-12.29,2.6-22.99-10.05-28.83-.52-.24-1.09.2-.99.76,1.36,7.29,2.84,13.72.34,21.08-1.13,3.32-2.19,6.07-3.19,8.25-7.5,16.36-15.96,34.03-25.39,53.01-1.41,2.83-2.68,6.06-2.85,8.79-2.04,32.43-2.46,72.35-3.65,108.5-.13,4.1,3.58,7.68,7.71,6.47,3.8-1.11,4.28-4.1,4.39-8.01.96-33.47,2.08-66.93,3.35-100.38.11-2.71.48-4.83,1.13-6.37,3.6-8.59,7.39-16.85,11.38-24.8" vector-effect="non-scaling-stroke" style="fill: none; stroke: #865018; stroke-width: 2px;"/>
        <path d="m167.76,366.79c2.13-.19,3.69-2.3,3.48-4.71-.21-2.41-2.11-4.21-4.25-4.02-2.13.19-3.69,2.3-3.48,4.71.21,2.41,2.11,4.21,4.25,4.02" vector-effect="non-scaling-stroke" style="fill: none; stroke: #865018; stroke-width: 2px;"/>
        <path d="m533.98,366.72c1.99-.22,3.4-2.3,3.14-4.65-.27-2.34-2.1-4.06-4.09-3.84-1.99.22-3.4,2.3-3.14,4.65.27,2.34,2.1,4.06,4.09,3.84" vector-effect="non-scaling-stroke" style="fill: none; stroke: #865018; stroke-width: 2px;"/>
        <path d="m405.1,482.35c4.32.38,8.14-2.95,8.54-7.44.4-4.5-2.77-8.45-7.08-8.83-4.32-.38-8.14,2.95-8.54,7.44-.4,4.5,2.77,8.45,7.08,8.83" vector-effect="non-scaling-stroke" style="fill: none; stroke: #865018; stroke-width: 2px;"/>
        <path d="m482.29,471.29c-2.44-2.49-6.43-2.52-8.91-.08l-.26.25c-2.48,2.44-2.52,6.43-.08,8.91l21.01,21.38c2.44,2.49,6.43,2.52,8.91.08l.26-.25c2.48-2.44,2.52-6.43.08-8.91l-21.01-21.38" vector-effect="non-scaling-stroke" style="fill: none; stroke: #865018; stroke-width: 2px;"/>
        <path d="m226.21,471.91c-2.34-2.41-6.19-2.48-8.6-.15l-22.57,21.8c-2.42,2.33-2.49,6.18-.15,8.6l.57.59c2.34,2.41,6.19,2.48,8.6.15l22.57-21.8c2.42-2.33,2.49-6.18.15-8.6l-.57-.59" vector-effect="non-scaling-stroke" style="fill: none; stroke: #865018; stroke-width: 2px;"/>
        <path d="m594.97,490.45c-12.11,22.69-28.36,42.98-48.75,60.89-5.72,5.03-12.34,9.83-18.71,14.41-10.14,7.29,1.74,21.93,10.61,14.88,6.15-4.89,13.65-11.66,22.5-20.31,14.32-14,26.91-29.41,37.76-46.24,2.19-3.39,6.37-10.37,12.54-20.95,1.29-2.21,1.98-3.9,2.07-5.05.37-4.65-5.01-7.79-9.16-7.05-4.87.87-6.64,5.27-8.86,9.42" vector-effect="non-scaling-stroke" style="fill: none; stroke: #858496; stroke-width: 2px;"/>
        <path d="m88.72,494.09c12.67,23.06,27.12,43.96,45.85,62.79,6.86,6.89,15.76,14.48,23.67,21.66,11.99,10.87,23.14-5.49,12.7-13.15-5.14-3.77-13.01-8.65-18.53-13.24-20.77-17.27-37.31-40.11-50.13-63.76-1.73-3.2-3.19-5.22-4.38-6.07-3.47-2.47-10.95-1.05-11.62,4.16-.33,2.57,1.15,5.27,2.44,7.61" vector-effect="non-scaling-stroke" style="fill: none; stroke: #858496; stroke-width: 2px;"/>
        <path d="m422.38,512.96c4.49.69,8.7-2.47,9.41-7.07.7-4.59-2.37-8.87-6.86-9.56-4.49-.69-8.7,2.47-9.41,7.07-.7,4.59,2.37,8.87,6.86,9.56" vector-effect="non-scaling-stroke" style="fill: none; stroke: #865018; stroke-width: 2px;"/>
        <path d="m322.21,508.78c.09-3.33-2.55-6.1-5.88-6.18h-.3c-3.33-.09-6.09,2.55-6.18,5.87l-1.19,48.79c-.09,3.33,2.55,6.1,5.88,6.18h.3c3.33.09,6.09-2.55,6.18-5.87l1.19-48.79" vector-effect="non-scaling-stroke" style="fill: none; stroke: #865018; stroke-width: 2px;"/>
        <path d="m449.61,532.74c0-4.78-3.88-8.66-8.66-8.66s-8.66,3.88-8.66,8.66,3.88,8.66,8.66,8.66,8.66-3.88,8.66-8.66" vector-effect="non-scaling-stroke" style="fill: none; stroke: #865018; stroke-width: 2px;"/>
        <path d="m211.97,601.62c1.44-.75,3.23-1.03,4.01-2.74,3.55-7.86-8.9-13.26-13.86-15.91-.62-.33-1.12-.2-1.51.4l-11.63,18.14c-.32.5-.22,1.16.23,1.55,4.42,3.79,8.58,5.98,13.5,8.49,2.58,1.31,7.38-.97,8.43-3.6.74-1.84.19-3.67.32-5.56.03-.35.2-.61.51-.77" vector-effect="non-scaling-stroke" style="fill: none; stroke: #858496; stroke-width: 2px;"/>
        <path d="m490.88,593.96c.25-.44.69-.75,1.19-.83,3.22-.53,5-2.42,5.33-5.68.05-.45-.13-.78-.53-.99-2.39-1.27-5.15-1.24-8.28.11-5.48,2.36-10.21,9.83-4.2,14.11,3.77,2.69,7.87,1.93,12.15.46.73-.25,1.43.46,1.16,1.18-.51,1.41-1.25,1.71-2.79,1.63-3.95-.2-6.4,1.56-7.37,5.27-.16.6.2,1.22.8,1.4,2.27.66,4.38,1.54,6.66,1.14,3.6-.65,6.6-2.42,9-5.32,4.36-5.27,1.57-13.14-5.36-13.25-2.46-.03-5.21,1.19-7.82,2.02-.29.09-.54-.22-.39-.48l.45-.77" vector-effect="non-scaling-stroke" style="fill: none; stroke: #858496; stroke-width: 2px;"/>
        <path d="m242.21,605.95c.35-.65.11-1.46-.53-1.8l-5.08-2.76c-.65-.35-1.45-.11-1.8.53l-10.89,20.05c-.35.65-.11,1.46.53,1.8l5.08,2.76c.65.35,1.45.11,1.8-.53l10.89-20.05" vector-effect="non-scaling-stroke" style="fill: none; stroke: #858496; stroke-width: 2px;"/>
        <path d="m461.84,627.21c1.78-.99,3.59-1.94,5.42-2.83,2.26-1.1,4.25-2.56,5.51.31.17.39.65.52.99.27l5.61-4.09c.16-.11.16-.34.01-.46-6.77-5.39-13.66-10.55-20.69-15.47-1.61-1.13-4.79-.93-4.78,1.56.05,8.59.16,17.14.33,25.65.01.45.23.59.65.43l5.86-2.26c.38-.15.58-.42.59-.83l.05-1.54c0-.31.18-.59.45-.74" vector-effect="non-scaling-stroke" style="fill: none; stroke: #858496; stroke-width: 2px;"/>
        <path d="m263.28,630.12c-8.62-6.53,5.7-10.97,6.55-4.22.05.33.39.53.7.4l6.31-2.5c.87-.35,1.08-.93.63-1.75-4.44-8.11-14.5-11.44-21.59-4.22-6.33,6.44-3.86,15.84,3.47,20.15,4.72,2.78,9.66,1.47,14.09-1.08.53-.3.68-1,.31-1.49l-4.07-5.44c-.15-.2-.44-.24-.64-.09-2.04,1.53-3.96,1.61-5.76.24" vector-effect="non-scaling-stroke" style="fill: none; stroke: #858496; stroke-width: 2px;"/>
        <path d="m423.5,626.25l5.26,14.24c.24.65.69.89,1.36.72l5.53-1.37c.67-.17.89-.57.66-1.22-1.61-4.43-3.2-8.87-4.77-13.34-.53-1.49-.24-2.51.86-3.06.73-.37,1.63-.15,2.42-.24.68-.07,1.14-.72.99-1.38-.49-2.2-1.36-4.24-2.61-6.13-.12-.18-.36-.26-.57-.19l-16.14,5.44c-.93.31-1.24.93-.93,1.86l1.79,5.43c.29.89.86,1.13,1.7.7l3.55-1.81c.35-.18.77-.01.9.35" vector-effect="non-scaling-stroke" style="fill: none; stroke: #858496; stroke-width: 2px;"/>
        <path d="m300.3,639.7c-.37-.1-.6-.48-.51-.85l3.51-14.9c.09-.38-.14-.76-.52-.85l-6.33-1.6c-.38-.09-.77.14-.86.52l-5.95,23.38c-.1.39.15.79.54.87l17.48,3.68c.36.07.71-.14.82-.49l1.95-6.3c.12-.39-.1-.8-.49-.9l-9.64-2.56" vector-effect="non-scaling-stroke" style="fill: none; stroke: #858496; stroke-width: 2px;"/>
        <path d="m400.72,623.67c-.1-.48-.58-.78-1.06-.68l-6.32,1.35c-.48.11-.79.58-.68,1.06l4.86,22.66c.1.48.58.78,1.06.68l6.32-1.35c.48-.11.79-.58.68-1.06l-4.86-22.67" vector-effect="non-scaling-stroke" style="fill: none; stroke: #858496; stroke-width: 2px;"/>
        <path d="m374.24,627.04c-.04-.3-.3-.53-.6-.51l-7.09.37c-.33.02-.58.31-.54.64l2.88,23.97c.04.3.32.53.62.5l6.7-.65c.31-.03.54-.31.51-.62l-2.48-23.7" vector-effect="non-scaling-stroke" style="fill: none; stroke: #858496; stroke-width: 2px;"/>
        <path d="m344.04,639.38c-.29-2.56,3.87-4.76,5.61-5.96.2-.14.25-.42.1-.62-4.53-6.07-10.14-7.45-16.85-4.12-4.21,2.09-6.5,5.11-6.89,9.06-.69,7.12,2.51,11.92,9.59,14.39,5.38,1.88,10.12-.96,13.59-4.73.3-.32.26-.83-.09-1.1-2.66-2.08-4.66-3.32-5.06-6.92" vector-effect="non-scaling-stroke" style="fill: none; stroke: #858496; stroke-width: 2px;"/>
        <path d="m335.59,102.71c-.16.36.11.77.51.76l23.3-.24c.4-.01.66-.42.5-.78l-11.93-26.6c-.2-.44-.82-.43-1.01.01l-11.37,26.85" vector-effect="non-scaling-stroke" style="fill: none; stroke: #858496; stroke-width: 2px;"/>
        <path d="m124.69,181.8l7.81,8.52c1.1,1.2,2.97,1.28,4.17.18l14.57-13.35c3.81-3.5,4.32-9.15,1.14-12.62l-.27-.29c-3.18-3.48-8.85-3.46-12.67.04l-14.57,13.35c-1.2,1.1-1.28,2.96-.18,4.17" vector-effect="non-scaling-stroke" style="fill: none; stroke: #858496; stroke-width: 2px;"/>
        <path d="m160.82,198.57c.14-.18.21-.41.19-.63-.07-.63-.49-.88-1.26-.73-2.94.57-5.21,3.29-7.46,4.78-.99.66-1.07,1.41-.22,2.26l1.18,1.17c.77.77,1.5.73,2.19-.13l5.38-6.72" vector-effect="non-scaling-stroke" style="fill: none; stroke: #858496; stroke-width: 2px;"/>
        <path d="m344.89,387.94c17.01,2.42,32.76-9.45,35.19-26.52,2.43-17.06-9.39-32.86-26.39-35.28-17.01-2.42-32.76,9.45-35.19,26.52-2.43,17.06,9.39,32.86,26.39,35.28" vector-effect="non-scaling-stroke" style="fill: none; stroke: #865018; stroke-width: 2px;"/>
        <path d="m356.57,365.48c4.19-3.83,4.43-10.4.53-14.68-3.9-4.27-10.47-4.63-14.67-.8-4.19,3.83-4.43,10.4-.53,14.68,3.9,4.27,10.47,4.63,14.67.8" vector-effect="non-scaling-stroke" style="fill: none; stroke: #858496; stroke-width: 2px;"/>
        <path d="m208.35,595.73c.44-.62-.17-1.81-1.35-2.65-1.19-.85-2.51-1.04-2.94-.42-.44.62.17,1.81,1.35,2.65,1.19.85,2.51,1.04,2.94.42" vector-effect="non-scaling-stroke" style="fill: none; stroke: #858496; stroke-width: 2px;"/>
        <path d="m204.11,603.7c.53-.65-.1-2.05-1.41-3.13-1.32-1.08-2.81-1.44-3.34-.79-.53.65.1,2.05,1.41,3.13,1.32,1.08,2.81,1.44,3.34.79" vector-effect="non-scaling-stroke" style="fill: none; stroke: #858496; stroke-width: 2px;"/>
        <path d="m463.96,617.9c-.44-.61-.97-1.12-1.6-1.55-.34-.23-.8,0-.81.41l-.04,1.5c-.02.55.24.79.79.74l1.22-.12c.71-.07.86-.39.44-.98" vector-effect="non-scaling-stroke" style="fill: none; stroke: #858496; stroke-width: 2px;"/>
        <path d="m343.78,639.81c.09-2.27-1.94-4.19-4.54-4.3-2.61-.11-4.8,1.63-4.89,3.89-.09,2.27,1.94,4.19,4.54,4.3,2.61.11,4.8-1.63,4.89-3.89" vector-effect="non-scaling-stroke" style="fill: none; stroke: #858496; stroke-width: 2px;"/>
      </g>
      <path d="m628.92,537.63c-.58,3,2.7,6.38,4.76,8.3.59.54.68,1.44.21,2.09l-5.86,8.17c-.54.76-1.58.97-2.37.48-8.95-5.5-16.79,3.65-20.41,10.78-1.75,3.45-1.45,6.54.54,9.76,1.01,1.63,2.97,3.6,1.35,5.61-1.09,1.35-2.37,2.47-3.86,3.34-.28.16-.63.17-.92.03-2.03-.97-3.6-1.58-4.69-1.83-6.45-1.48-14.68,6.13-17.7,10.65-3.9,5.82-3.63,12.08-1.71,18.86.09.35,0,.66-.24.91-5.89,5.83-12.15,11.21-18.79,16.15-.4.3-.96.27-1.32-.08-4.03-3.87-8.77-7.15-14.71-5.63-5.07,1.3-10.18,4.65-13.98,7.96-6,5.22-5.63,11.89-5.11,19.11.05.75-.31,1.46-.94,1.86-6.63,4.22-13.5,8-20.61,11.35-.29.14-.64.07-.84-.18-4.31-5.26-9.76-9.05-16.91-7.29-7.07,1.74-15.8,5.89-18.01,13.2-.75,2.45-1.08,5.79-1.01,10.01.01.42-.19.69-.59.81l-28.73,9.01c-.85.27-1.39-.03-1.64-.88-.49-1.65-1.4-3.3-2.75-4.93-5.82-7.04-15.82-5.04-23.32-2.57-8.18,2.69-9.67,8.68-11.74,16.04-.18.64-.74,1.11-1.4,1.18-6.76.73-13.62,1.42-20.57,2.07-1.45.14-3.37.16-5.74.05-.3-.01-.57-.2-.68-.49-2.42-6.18-4.65-11.94-12.33-12.64-4.31-.39-8.61-.36-12.91.11-7.2.78-9.57,6.36-11.64,12.26-.24.7-.93,1.14-1.67,1.08l-26.65-2.42c-.35-.03-.63-.29-.7-.63-1.34-6.99-2.8-13.48-10.25-16.31-11-4.18-22.28-5.26-28.4,6.84-.14.29-.45.46-.77.43-1.31-.13-2.56-.34-3.77-.63-8.73-2.13-17.4-4.66-26.02-7.59-.34-.11-.56-.44-.54-.8.47-6.28-.18-13.34-5.7-17.43-4.52-3.36-9.18-5.35-13.97-5.97-7.46-.96-11.37,2.85-16.07,7.66-.52.53-1.32.68-1.99.37-7.06-3.25-13.81-7.06-20.24-11.41-.51-.34-.79-.94-.73-1.56.91-8.5,1.53-14.06-6-20.06-4.58-3.65-8.42-5.99-11.51-7.04-6.92-2.34-11.58,1.55-16.48,5.67-.42.35-1.02.38-1.47.06-7.01-4.93-13.45-10.5-19.33-16.72-.42-.44-.52-1.09-.27-1.64,5.22-11.41-1-21.26-10.61-27.19-5.15-3.17-8.77-1.44-13.65.75-.44.2-.96.09-1.29-.27l-4.45-4.93c-.26-.29-.28-.71-.06-1.03,2.65-3.86,5.7-6.43,3.42-11.66-1.99-4.55-8.76-14.48-14.62-13.79-2.3.27-4.8,1.54-7.06,2.49-.33.14-.6.06-.8-.25-1.93-2.97-5.48-6.75-6.27-10.04-.08-.33-.02-.63.17-.9,3.13-4.39,6.38-6.01,3.34-12.37-.72-1.5-2.39-4.08-5.01-7.73-4.14-5.77-8.55-4.58-14.28-2.34-.46.18-.98-.02-1.21-.46l-5.46-10.73c-.21-.41-.08-.92.3-1.18,2.3-1.59,4.33-3.53,6.09-5.81,2.77-3.59-2.78-15.9-5.43-18.76-3.27-3.55-8.57-3.05-13.04-2.34-.35.05-.59-.09-.7-.43l-3.76-10.91c-.12-.35.03-.74.36-.91,2.84-1.49,5.32-3.52,7.45-6.07,2.74-3.29-2.93-18.76-5.62-21.76-2.16-2.41-9.83-2.16-12.79-2.05-.37.02-.59-.15-.67-.52l-4.72-21.17c-.13-.6.25-1.19.85-1.31,5.55-1.16,12.22-3.62,11.51-10.74-.65-6.47-1.37-11.14-2.17-14-1.73-6.18-7.85-6.44-12.93-6.99-.31-.03-.49-.21-.52-.53l-1.31-11.46c-.07-.67.22-1.1.87-1.27,3.55-.95,9.39-2.16,9.67-6.75.3-4.83.2-10.07-.29-15.74-.54-6.18-8.02-7.7-13.03-8.01-.33-.02-.5-.2-.5-.53,0-7.54.48-15.05,1.43-22.53.08-.64.44-.96,1.09-.95,4.82.04,10.67.14,12.65-5.46,1-2.83,4.11-18.02,1.56-21.77-1.97-2.91-7.07-4.76-10.25-5.81-.42-.14-.67-.58-.57-1.01l5.27-23.15c.12-.5.6-.82,1.11-.74,7.99,1.25,11.95.57,14.78-7.78,1.95-5.75,2.91-9.87,2.9-12.38-.04-4.97-4.34-7.27-8.2-9.06-.51-.24-.76-.83-.57-1.36l5.96-16.21c.1-.27.35-.46.64-.48,2.23-.2,4.39-.3,6.49-.3,6.59-.02,10.34-9.56,11.51-14.98.94-4.36-1.63-7.04-4.81-9.22-.46-.31-.6-.92-.34-1.41l5.54-10.15c.21-.39.68-.56,1.09-.4,3.88,1.52,8.5,2.48,11.92-.96,3.93-3.95,6.65-8.57,8.15-13.85.91-3.19-3.09-6.82-5-8.94-.15-.16-.19-.4-.09-.61,1.94-3.97,4.35-7.64,7.24-11,.22-.26.6-.31.89-.13,3.2,2.03,8.26,3.75,11.66,1.18,4.87-3.69,8.19-8.2,9.96-13.52,1.05-3.14-2.77-7.57-4.69-9.83-.4-.46-.4-1.14,0-1.61l5.85-6.89c.18-.22.5-.25.72-.07,3.6,2.89,7.15,5.55,12.01,3.21,9.42-4.52,18.58-14.39,15.5-25.34-.51-1.79-.86-3.21-1.05-4.26-.07-.37.07-.75.36-.98l18.47-14.92c.5-.4,1.22-.37,1.68.07,3.23,3.12,7.13,6.64,11.94,6.66,4.12.02,15.11-7.52,17.76-9.77,6.7-5.72,8.41-10.45,6.73-19.01-.15-.76.17-1.54.82-1.96,6.31-4.19,12.92-7.84,19.82-10.97.52-.24,1.13-.06,1.43.42,1.63,2.58,3.54,5.07,5.74,7.48,5,5.46,15.68-.71,20.96-3.89,2.99-1.8,2.36-5.87,2.56-8.81.37-5.23,5.92-7.35,10.12-8.7.35-.11.74.01.96.31,3.77,5.13,8.22,9.18,14.93,6.68,8.76-3.27,7.33-7.02,7.92-14.94.05-.74.58-1.36,1.31-1.53l11.37-2.7c.46-.1.92.18,1.02.64.98,4.56,2.84,12.07,9.25,10.75,8.71-1.8,17.48-3.2,26.31-4.21,1.97-.23,4.19-1.02,6.67-2.39.28-.15.5-.4.61-.7.87-2.25.16-7.23-.06-9.64-.05-.5.3-.95.8-1.02l11.4-1.56c.34-.05.57.09.7.41.96,2.51,2.03,4.94,3.22,7.29,1.53,3.03,3.66,4.62,6.4,4.77,8.09.43,13.17.51,15.24.23,6.52-.87,8.58-6.03,9.98-11.55.15-.61.54-.87,1.17-.8l11.04,1.39c.45.05.68.3.7.75.45,7.63-1.37,11.75,8.11,13.17,6.17.93,12.34,1.91,18.5,2.94,8.19,1.37,10.21-2.57,11.86-9.52.13-.53.66-.87,1.2-.76l12.42,2.53c.35.07.54.28.57.63.46,5.01-.24,10.19,4.01,13.2,1.95,1.39,4.44,2.39,7.46,3.01,5.79,1.2,9.33-2.92,12.07-7.27.25-.4.75-.57,1.19-.4,1.91.73,3.76,1.6,5.55,2.63,4.01,2.32,2.74,8.91,3.65,11.86,1.28,4.19,14.61,8.64,18.04,9.44,5.49,1.28,10.83-5.34,12.71-9.74.1-.25.39-.35.63-.24,6.49,3.07,12.88,6.42,19.17,10.04.94.54,1.83,1.15,2.67,1.82.26.21.43.52.46.86.13,1.59.11,3.36-.08,5.32-.99,10.59,9.67,16.78,17.65,21.54,6.5,3.87,12.63.5,16.82-4.81.2-.25.56-.31.82-.13,6.97,4.69,13.5,9.94,19.58,15.74.47.44.68,1.09.56,1.73-1.01,5.36-1.84,9.86.72,14.92,2.71,5.37,9.66,11.64,15.49,13.8,3.31,1.22,7.22-1.88,9.98-3.63.35-.22.65-.17.9.14l5.38,6.49c.45.55.47,1.33.05,1.89-3.08,4.09-5.58,7.22-2.89,12.65,2.39,4.81,5.93,8.61,10.64,11.4,1.86,1.09,7.33-.93,9.66-1.62.32-.09.66,0,.89.25,2.71,2.97,4.95,6.27,6.7,9.9.32.67.2,1.48-.32,2.02-2.71,2.83-5.53,5.8-3.93,10.2,1.85,5.1,4.67,9.29,8.46,12.57,3.06,2.65,7.89,1.26,11.4.19.67-.21,1.39.11,1.69.75l4.7,9.98c.42.89.17,1.95-.61,2.56-2.07,1.62-4.59,4.16-4.12,7.19.85,5.57,2.97,10.02,6.36,13.37,2.22,2.2,7.48,2.06,10.5,2.1.67,0,1.26.44,1.5,1.07l6.16,16.92c.12.34-.04.72-.37.85-3.55,1.48-7.94,4.69-8.13,8.79-.21,4.26,2.09,11.01,3.85,15.47,2.48,6.28,7.34,5.58,13,5.37.63-.03,1.02.27,1.17.89l5.22,22.56c.1.43-.13.87-.54,1.04-4.59,1.84-10.22,3.65-10.5,9.58-.12,2.45.11,5.71.7,9.77,1.08,7.54,1.92,13.24,10.51,13.34,2.03.03,3.52.05,4.45.07.35,0,.57.18.67.51,1.91,6.4,1.85,15.3,1.83,22.27,0,.77-.38,1.26-1.13,1.47-5.19,1.41-11.78.93-12.36,8.31-.45,5.61-.5,10.69-.16,15.26.31,4.2,5.68,6.06,9.02,7.13.56.17.81.55.74,1.14l-1.29,10.87c-.08.68-.61,1.22-1.3,1.31-4.56.58-9.38.43-11.49,5.8-1.43,3.62-3.83,16.68-.91,20.86,2.22,3.17,6.64,4.11,10.27,4.73.33.06.55.36.51.69-.75,6.21-2.25,13.04-4.5,20.5-.38,1.27-1.15,1.89-2.32,1.86-5.2-.11-10.69-.86-13.33,4.82-.93,2-2.04,5.35-3.33,10.06-2.18,7.99.69,11.44,7.08,14.92.54.29.78.94.57,1.52l-3.52,9.62c-.32.9-1.21,1.47-2.17,1.39-3.34-.25-7.94-1.07-10.66,1.67-3.51,3.53-5.76,7.68-6.76,12.45-1.17,5.54,1.49,8.8,5.79,11.67.65.43.86,1.28.5,1.96l-5.33,10.1c-.46.88-1.15,1.12-2.06.73-3.73-1.64-7.82-2.82-11.47.04-4.87,3.81-7.85,8.49-8.94,14.04Zm20.57-303.11c-9.5-25.56-23.94-50.14-40.32-71.86-23.89-31.67-52.4-58.42-85.53-80.23-32.72-21.55-67.85-35.87-104.08-44.73-34.35-8.41-73.84-11.8-108.76-6.13-14.35,2.33-24.85,4.31-31.5,5.94-38.18,9.31-73.69,24.73-106.54,46.26-10.55,6.91-17.46,11.65-20.72,14.22-20.98,16.53-40.19,35.64-57.64,57.35-31.01,38.59-50.82,82.07-59.43,130.43-6.66,37.4-7.87,74.66-1.92,112.24,2.02,12.78,3.91,23.05,5.66,30.8,4.67,20.67,11.82,41.26,21.44,61.78,17.47,37.29,43.64,70.58,73.66,98.55,4.79,4.45,9.86,8.77,15.21,12.95,36.7,28.65,78.45,51.54,123.97,62.6,42.77,10.4,85.01,12.64,128.5,5.16,6.58-1.13,13.88-2.86,20.79-4.37,6.01-1.32,11.15-2.64,15.42-3.96,59.15-18.25,111.94-52.93,153.54-100.56,37.32-42.74,62.49-92.57,72.15-148.69,2.41-13.99,4.04-25.25,4.89-33.76,4.75-47.58-2.29-99.55-18.79-143.99Z" style="fill: #ff9600; stroke-width: 0px;"/>
      <path d="m172.89,172.32c-.45,1.01-.15,1.33.89.96,4.51-1.59,8.93-3.21,13.26-4.86,8.43-3.21,15.65-8.37,23.25-13.35.48-.32.65-.95.39-1.46l-26.73-52.66c-.2-.4-.08-.89.29-1.13,5.76-3.85,11.65-7.33,17.67-10.43,18.95-9.75,38.41-18.29,58.38-25.62.29-.1.61.03.73.31l6.54,14.81c.21.49-.01,1.06-.5,1.27l-52.31,22.74c-.33.14-.43.59-.23.99l4.42,8.86c.16.32.4.41.73.26l35.5-15.58c.43-.19.74-.07.95.34l7.23,14.33c.13.27.01.6-.27.71-12.49,5.1-24.75,10.69-36.79,16.77-.51.26-.71.89-.44,1.39l4.77,8.9c.21.39.7.55,1.1.34,23.16-11.91,47-21.02,73.07-24.32.38-.05.71-.3.87-.65l28.75-64.17c.42-.94,1.35-1.54,2.38-1.55l21.88-.11c.35,0,.64.14.85.41,1.36,1.72,2.52,3.56,3.47,5.53,9.63,19.83,19.18,39.72,28.63,59.67.28.59.83,1.01,1.46,1.12,10.71,1.99,21.27,4.56,31.68,7.71.34.1.63-.27.44-.58-5.35-8.71-4.2-17.61-.62-27.08,7.77-20.5,27.42-28.68,47.49-19.24,13.09,6.16,25.26,13.79,36.49,22.9,4.14,3.36,6.23,4.84,8.51,8.23.19.28.17.65-.04.91-3.27,3.99-6.74,7.78-10.43,11.36-2.87,2.78-11.47-1.62-14.48-3.41-1.35-.8-2.04-1.71-2.48-3.33-2.3-8.43-11.65-14.09-19.6-16.9-5.41-1.91-10.38-1.66-14.93.76-5.38,2.85-9.85,9.26-10.51,15.32-1.13,10.34,9.97,18.37,19.28,19.81,4.87.76,7.48-1.52,11.69-3.25,7.02-2.89,12.42,2.89,15.01,8.66,1.91,4.27-4.98,9.98-8.7,10.27-.29.02-.39.4-.16.57,3.14,2.35,8.07,5.67,6.29,10.43-1.45,3.87-5.99,8.13-10.7,8.49-1.34.11-2.75-.27-4.24-1.14-8.36-4.89-13.97-8.07-16.84-9.54-19.09-9.79-39.07-16.99-59.94-21.59-9.83-2.17-20.19-3.26-30.32-4-.68-.05-1.3-.44-1.64-1.04l-4.68-8.19c-.26-.47-.77-.75-1.31-.74l-16.57.31c-.31.01-.54.15-.68.42-1.49,2.81-3.75,8.82-7.3,9.07-4.4.32-8.79.72-13.17,1.19-26.25,2.84-52.16,11.5-75.62,23.92-42.23,22.34-77.97,54.76-101.39,97.47-25.52,46.53-35.4,99.57-24.94,151.84,4.21,21.02,12.35,41.24,22.59,60.29,16.01,29.78,38.01,53.94,64.93,73.8,45.43,33.52,100.54,53.4,157.91,49.38,20.56-1.44,40.34-5.41,59.93-12.47,63.03-22.73,115.88-67.49,143.12-129.23,21.3-48.27,24.29-97.34,8.97-147.2-13.7-44.57-40.97-84.82-76.37-114.5-7.08-5.93,4.55-13.75,9.6-15.27.36-.11.7-.06,1.02.14,2.53,1.59,4.74,3.52,6.65,5.81.26.31.54.33.84.06l28.33-24.95c.32-.28.33-.76.04-1.07l-17-17.65c-.63-.65-.61-1.28.05-1.9l10.46-9.89c.23-.21.57-.23.81-.05,2.05,1.46,3.73,2.85,5.04,4.17,17.95,18.07,35.97,36.89,52.07,56.64.18.21.15.53-.06.71l-12.32,10.69c-.48.42-1.21.37-1.64-.1l-20.2-22.62c-.32-.37-.88-.41-1.25-.09-7.98,6.84-16.09,13.71-24.33,20.6-.89.75-1.65,1.59-2.28,2.54-.21.31-.18.6.08.87,23.55,25.11,40.29,53.42,52.93,85.2,18.84,47.33,21.24,101.8,5.51,150.38-16.04,49.53-46.25,92.85-87.98,123.81-37.1,27.53-80.15,46.46-125.99,52.24-9.1,1.15-19.97,2.1-29.56,1.9-14.89-.31-27.73-1.36-38.53-3.13-36.31-5.97-69.9-18.92-100.77-38.85-5.94-3.84-11.79-7.82-17.55-11.94-47.2-33.78-78.71-83.84-92.47-139.8-4.24-17.26-5.61-35.6-5.72-53.35-.05-7.86.81-16.39,1.4-24.58.43-6.01,1.6-13.19,3.5-21.55,7.19-31.68,19.8-60.94,37.82-87.79.24-.36.21-.82-.08-1.08l-42.58-39.08c-.59-.54-.65-1.45-.14-2.07,9.91-11.96,20.93-23.23,31.85-34.26,2.86-2.89,5.81-5.68,8.86-8.38,8.45-7.5,21.21-9.08,29.78-2.07,9.21,7.54,11.82,21.23,6.95,32.26Zm162.7-69.61c-.16.36.11.77.51.76l23.3-.24c.4-.01.66-.42.5-.78l-11.93-26.6c-.2-.44-.82-.43-1.01.01l-11.37,26.85Zm-210.9,79.09l7.81,8.52c1.1,1.2,2.97,1.28,4.17.18l14.57-13.35c3.81-3.5,4.32-9.15,1.14-12.62l-.27-.29c-3.18-3.48-8.85-3.46-12.67.04l-14.57,13.35c-1.2,1.1-1.28,2.96-.18,4.17Zm36.13,16.77c.14-.18.21-.41.19-.63-.07-.63-.49-.88-1.26-.73-2.94.57-5.21,3.29-7.46,4.78-.99.66-1.07,1.41-.22,2.26l1.18,1.17c.77.77,1.5.73,2.19-.13l5.38-6.72Z" style="fill: #fdfdfd; stroke-width: 0px;"/>
      <path d="m298.17,285.77c2.68-6.01,5.45-12.03,8.3-18.05.71-1.5,1.28-3.84,1.32-5.21.9-33.33,1.65-66.67,2.25-100,.04-2.24.31-4.58,1.74-6.32,2.82-3.47,8.46-2.16,10.13,1.74.47,1.09.69,2.85.65,5.27-.71,47.71-1.38,81.15-2.01,100.31-.12,3.62-1.24,7.57-3.36,11.85-7.99,16.16-16.04,32.3-24.13,48.41-2.48,4.93-4.21,10.95-5.19,18.04-.36,2.6-.15,5.48-.25,8.22-.01.27-.34.4-.53.21-4.78-4.88-10.96-9.87-9.98-17.48.35-2.75,1.5-6.36,3.43-10.83,3.31-7.63,6.89-15.31,10.75-23.03.3-.59.03-1.32-.59-1.57-36.86-14.84-73.32-31.39-110.02-47.01-4.64-1.98-6.28-5.07-4.91-9.28,1.49-4.59,4.73-5.91,9.16-3.89,32.92,14.95,66.05,29.4,99.4,43.37,4.33,1.81,8.63,3.68,12.9,5.61.36.16.78,0,.94-.36Z" style="fill: #ff9600; stroke-width: 0px;"/>
      <rect x="351.61" y="176.17" width="55.62" height="12.1" rx="5.91" ry="5.91" transform="translate(188.64 557.41) rotate(-88.7)" style="fill: #ff9600; stroke-width: 0px;"/>
      <path d="m440.78,344.88c2.55-7.23,7.54-12.25,14.96-15.07,29.75-11.33,59.45-22.84,89.08-34.55,4.17-1.65,8.26.15,9.34,4.47,1.06,4.24-2.46,7.38-6.32,8.92-24.72,9.82-49.53,19.39-74.44,28.72-8.5,3.19-18.17,4.5-21.63,14.13-.1.27-.09.56.03.82.45,1,1.05,1.89,1.8,2.66,3.9,4.01,7.76,8.07,11.58,12.16,3.82,4.09,9.59,5.3,14.57,7.45,23.11,9.98,46.35,19.64,69.73,28.97,4.35,1.73,7.57,5.53,5.33,10.46-2.07,4.56-6.32,3.39-10.33,1.76-36.99-15.09-63.47-26.2-79.43-33.32-2.28-1.02-4.99-3.12-8.14-6.31-7.33-7.43-14.83-14.68-22.52-21.75-7.63-7.02-14.26-13.71-21.31-20.67-4.51-4.44-5.79-10.32-8.16-15.94-2.41-5.67-6.36-9.76-11.86-12.25-14.3-6.47-28.93-12.09-44.51-14.5-.65-.1-1.72.04-3.19.43-7.39,1.93-14.47,4.54-21.22,7.85-.39.19-.5.08-.32-.31,3.6-7.83,8.94-16.72,13.74-22.76,3.64-4.58,8.28-8.85,13.92-12.8,23.61-16.57,38.47-26.89,44.57-30.95,4.67-3.11,7.95-6.85,9.82-11.2,6.78-15.73,13.52-31.48,20.22-47.24,2.68-6.3,11.12-4.63,11.66,1.96.17,2.07-.3,4.41-1.42,7-6.5,15.07-13.06,30.11-19.68,45.13-3.14,7.14-5.78,10.02-12.55,14.76-7.79,5.46-15.59,10.89-23.4,16.29-7.24,5.02-18.83,12.41-27.77,19.49-.86.69-.74,1.06.35,1.13,1.4.08,2.99.32,4.76.73,10.6,2.45,20.91,5.8,30.93,10.05,1.33.56,2.57.99,3.74,1.3.82.21,1.68-.07,2.22-.73,3.29-4.03,7.38-5.66,12.04-7.64,46.23-19.59,76.38-32.39,90.46-38.39,3.47-1.47,7.92-3.51,13.37-6.1,2.97-1.42,5.07-2.17,6.32-2.26,5.85-.41,8.91,6.82,5.25,11.53-.68.87-2.16,1.79-4.45,2.76-34.81,14.8-69.68,29.45-104.61,43.94-2.19.91-4.3,1.98-6.33,3.23-.47.29-.51.97-.06,1.3,2.09,1.56,3.79,3.57,5.12,6.03,3.43,6.37,6.59,12.86,9.49,19.49.91,2.08,2.27,4.21,3.87,5.76,4.77,4.61,9.53,9.38,14.3,14.29.34.35.92.22,1.08-.23Z" style="fill: #ff9600; stroke-width: 0px;"/>
      <ellipse cx="263.8" cy="179.56" rx="7.93" ry="8.24" transform="translate(-41.79 87.64) rotate(-17.5)" style="fill: #ff9600; stroke-width: 0px;"/>
      <path d="m160.82,198.57l-5.38,6.72c-.69.86-1.42.9-2.19.13l-1.18-1.17c-.85-.85-.77-1.6.22-2.26,2.25-1.49,4.52-4.21,7.46-4.78.77-.15,1.19.1,1.26.73.02.22-.05.45-.19.63Z" style="fill: #0c0a2f; stroke-width: 0px;"/>
      <circle cx="280.79" cy="205.36" r="7.83" style="fill: #ff9600; stroke-width: 0px;"/>
      <rect x="210.43" y="205.17" width="13.12" height="38.64" rx="6.37" ry="6.37" transform="translate(-94.84 208.84) rotate(-43.1)" style="fill: #ff9600; stroke-width: 0px;"/>
      <rect x="462.71" y="219.83" width="38.94" height="13.06" rx="6.18" ry="6.18" transform="translate(-19.46 405.5) rotate(-44.8)" style="fill: #ff9600; stroke-width: 0px;"/>
      <ellipse cx="288.89" cy="230.41" rx="3.38" ry="3.67" transform="translate(-1.6 2.02) rotate(-.4)" style="fill: #ff9600; stroke-width: 0px;"/>
      <circle cx="82.68" cy="251.34" r="17.82" style="fill: #fdfdfd; stroke-width: 0px;"/>
      <ellipse cx="614.87" cy="251.37" rx="17.71" ry="18.18" transform="translate(90.45 659.09) rotate(-60.1)" style="fill: #fdfdfd; stroke-width: 0px;"/>
      <ellipse cx="297.11" cy="245.24" rx="3.1" ry="3.36" transform="translate(-16.38 21.32) rotate(-4)" style="fill: #ff9600; stroke-width: 0px;"/>
      <path d="m291.21,413.04c.46-.15.62-.71.32-1.08-7.63-9.32-12.49-21.36-15.55-32.1-.28-.96-1.1-2.32-1.94-3.17-4.23-4.26-8.67-8.3-13.31-12.11-.32-.26-.57-.21-.74.16-4.03,8.44-7.59,13.99-16.81,17.56-27.53,10.67-55.15,21.08-82.86,31.24-4.26,1.56-10.28,5.45-14.18,1.61-3.63-3.57-1.79-9.49,2.77-11.29,17.03-6.72,42.88-16.46,77.54-29.21,12.18-4.48,17.71-6.11,23.61-16.35.63-1.1.64-1.96.03-2.58-6.12-6.19-11.59-13.95-20.01-17.2-6.04-2.33-12.03-4.76-17.98-7.3-20.41-8.71-40.96-17.06-61.46-25.55-5.02-2.07-7.01-7.75-2.72-11.6,2.39-2.14,5.47-1.47,8.14-.32,26.63,11.41,53.56,22.19,80.25,33.49,2.35.99,5.03,2.91,8.02,5.75,12.91,12.25,25.76,24.55,38.57,36.92,3.23,3.11,4.78,5.75,6.19,10.38,2.18,7.13,6.26,21.3,13.81,25.1,15.72,7.9,29.58,14.79,45.41,17.22,2.58.4,4.29.04,6.84-1.08,6.61-2.88,13.37-5.13,19.7-8.35,1.22-.62,1.52-.32.9.9-4.09,8.01-8.75,15.47-13.99,22.38-1.74,2.29-5.05,5.22-9.92,8.79-8.55,6.26-17.23,12.33-26.04,18.21-10.63,7.08-20.1,13.72-28.39,19.91-3.12,2.33-5.49,5.42-7.12,9.26-7.14,16.84-14.37,33.64-21.69,50.41-.95,2.16-2.36,4.17-4.74,4.81-4.17,1.12-8.76-2.8-7.54-7.35.55-2.04,1.07-3.66,1.58-4.85,9.52-22.54,17.15-40.01,22.89-52.42,1.92-4.17,5.06-7.79,9.42-10.86,17.34-12.22,34.91-24.09,52.71-35.62.83-.54,1.49-.93,1.96-1.18,1.61-.82,1.52-1.38-.26-1.69-12.75-2.15-25.46-7.47-37.34-12.46-.98-.41-2.09-.37-3.04.11-3.11,1.57-6.38,3.08-9.81,4.53-33.47,14.15-66.92,28.33-100.35,42.56-4.81,2.05-9.6,4.16-14.35,6.33-9.32,4.25-13.38-7.78-5.51-12.31,1.47-.85,5.08-2.48,10.82-4.9,32.34-13.64,64.64-27.37,96.9-41.18,3.11-1.33,6.2-2.51,9.27-3.52Z" style="fill: #ff9600; stroke-width: 0px;"/>
      <path d="m87.05,448.63c1.11,2.97,2.14,5.9,3.1,8.8.22.68.26,1.41.11,2.1-1.46,6.61-10.33,9.42-14.27,3.07-.85-1.37-1.53-2.8-2.04-4.31-4.51-13.37-8.44-26.89-11.79-40.58-3.57-14.61-4.8-29.42-5.88-43.71-.34-4.47-.49-8.3-.44-11.5.24-17.33,2.15-34.48,5.72-51.45.88-4.19,1.28-9.09,7.01-8.98,4.88.09,9.5,3.82,8.42,9.18-4.2,20.83-6.33,41.49-5.43,62.76.47,11.21,2.06,23.73,4.75,37.56,2.52,12.92,6.2,24.88,10.74,37.06Z" style="fill: #fdfdfd; stroke-width: 0px;"/>
      <path d="m610.65,450.67c6.03-15.45,10.31-30.51,12.85-45.17,2.34-13.42,4.15-29.29,4.07-43.23-.09-17.3-2.02-34.06-5.78-50.28-1.35-5.83,2.08-9.52,7.65-9.8,3.68-.19,6,1.92,6.95,6.31,5.03,23.03,7.81,48.19,5.7,71.71-2.38,26.47-8.39,53.23-18.04,80.28-3.96,11.1-17.59,3.44-15.36-4.1.57-1.93,1.23-3.84,1.96-5.72Z" style="fill: #fdfdfd; stroke-width: 0px;"/>
      <path d="m393.63,356.96c0,24.53-19.89,44.42-44.42,44.42s-44.42-19.89-44.42-44.42,19.89-44.42,44.42-44.42,44.42,19.89,44.42,44.42Zm-48.74,30.98c17.01,2.42,32.76-9.45,35.19-26.52,2.43-17.06-9.39-32.86-26.39-35.28-17.01-2.42-32.76,9.45-35.19,26.52-2.43,17.06,9.39,32.86,26.39,35.28Z" style="fill: #ff9600; stroke-width: 0px;"/>
      <ellipse cx="349.5" cy="357.74" rx="10.29" ry="10.48" transform="translate(-149.81 329.23) rotate(-42.4)" style="fill: #fdfdfd; stroke-width: 0px;"/>
      <ellipse cx="141.94" cy="358.32" rx="8.18" ry="8.62" transform="translate(-92.73 52.59) rotate(-15.9)" style="fill: #ff9600; stroke-width: 0px;"/>
      <ellipse cx="558.87" cy="358.83" rx="7.91" ry="8.2" transform="translate(-85.54 198.12) rotate(-18.7)" style="fill: #ff9600; stroke-width: 0px;"/>
      <ellipse cx="511.84" cy="359.15" rx="6.84" ry="7.15" transform="translate(-106.31 265.04) rotate(-26.4)" style="fill: #ff9600; stroke-width: 0px;"/>
      <ellipse cx="190.16" cy="358.9" rx="5.78" ry="6.27" transform="translate(-119.68 96.29) rotate(-21.8)" style="fill: #ff9600; stroke-width: 0px;"/>
      <ellipse cx="486.86" cy="358.87" rx="3.8" ry="4.31" transform="translate(-79.32 146.12) rotate(-15.8)" style="fill: #ff9600; stroke-width: 0px;"/>
      <ellipse cx="211.73" cy="359.24" rx="3.49" ry="3.94" transform="translate(-100.17 82.47) rotate(-17.9)" style="fill: #ff9600; stroke-width: 0px;"/>
      <path d="m402.57,424.67c-3.99,7.95-7.78,16.21-11.38,24.8-.65,1.54-1.02,3.66-1.13,6.37-1.27,33.45-2.39,66.91-3.35,100.38-.11,3.91-.59,6.9-4.39,8.01-4.13,1.21-7.84-2.37-7.71-6.47,1.19-36.15,1.61-76.07,3.65-108.5.17-2.73,1.44-5.96,2.85-8.79,9.43-18.98,17.89-36.65,25.39-53.01,1-2.18,2.06-4.93,3.19-8.25,2.5-7.36,1.02-13.79-.34-21.08-.1-.56.47-1,.99-.76,12.65,5.84,15.42,16.54,10.05,28.83-3.69,8.45-7.35,16.83-10.98,25.15-.22.51.02,1.09.52,1.31,37.64,16.18,75.17,32.5,112.58,48.95,4.98,2.19,8.65,8.81,3.11,12.91-1.91,1.41-4,1.57-6.29.49-12.29-5.81-24.67-11.4-37.16-16.76-26.09-11.19-52.05-22.69-78.13-34.11-.56-.24-1.2-.01-1.47.53Z" style="fill: #ff9600; stroke-width: 0px;"/>
      <ellipse cx="167.37" cy="362.43" rx="3.88" ry="4.38" transform="translate(-31.56 16.31) rotate(-5.1)" style="fill: #ff9600; stroke-width: 0px;"/>
      <ellipse cx="533.5" cy="362.48" rx="3.64" ry="4.27" transform="translate(-37.08 61.73) rotate(-6.4)" style="fill: #ff9600; stroke-width: 0px;"/>
      <ellipse cx="405.83" cy="474.21" rx="8.17" ry="7.84" transform="translate(-102.58 836.28) rotate(-84.9)" style="fill: #ff9600; stroke-width: 0px;"/>
      <rect x="481.69" y="465.23" width="12.96" height="42.58" rx="6.3" ry="6.3" transform="translate(-201.02 481.67) rotate(-44.5)" style="fill: #ff9600; stroke-width: 0px;"/>
      <rect x="189.06" y="480.84" width="43.54" height="12.98" rx="6.08" ry="6.08" transform="translate(-279.36 283.23) rotate(-44)" style="fill: #ff9600; stroke-width: 0px;"/>
      <path d="m594.97,490.45c2.22-4.15,3.99-8.55,8.86-9.42,4.15-.74,9.53,2.4,9.16,7.05-.09,1.15-.78,2.84-2.07,5.05-6.17,10.58-10.35,17.56-12.54,20.95-10.85,16.83-23.44,32.24-37.76,46.24-8.85,8.65-16.35,15.42-22.5,20.31-8.87,7.05-20.75-7.59-10.61-14.88,6.37-4.58,12.99-9.38,18.71-14.41,20.39-17.91,36.64-38.2,48.75-60.89Z" style="fill: #fdfdfd; stroke-width: 0px;"/>
      <path d="m88.72,494.09c-1.29-2.34-2.77-5.04-2.44-7.61.67-5.21,8.15-6.63,11.62-4.16,1.19.85,2.65,2.87,4.38,6.07,12.82,23.65,29.36,46.49,50.13,63.76,5.52,4.59,13.39,9.47,18.53,13.24,10.44,7.66-.71,24.02-12.7,13.15-7.91-7.18-16.81-14.77-23.67-21.66-18.73-18.83-33.18-39.73-45.85-62.79Z" style="fill: #fdfdfd; stroke-width: 0px;"/>
      <ellipse cx="423.65" cy="504.65" rx="8.41" ry="8.23" transform="translate(-139.27 847.09) rotate(-81.3)" style="fill: #ff9600; stroke-width: 0px;"/>
      <rect x="285.01" y="526.84" width="60.86" height="12.36" rx="6.03" ry="6.03" transform="translate(-225.13 835.34) rotate(-88.6)" style="fill: #ff9600; stroke-width: 0px;"/>
      <circle cx="440.95" cy="532.74" r="8.66" style="fill: #ff9600; stroke-width: 0px;"/>
      <path d="m211.46,602.39c-.13,1.89.42,3.72-.32,5.56-1.05,2.63-5.85,4.91-8.43,3.6-4.92-2.51-9.08-4.7-13.5-8.49-.45-.39-.55-1.05-.23-1.55l11.63-18.14c.39-.6.89-.73,1.51-.4,4.96,2.65,17.41,8.05,13.86,15.91-.78,1.71-2.57,1.99-4.01,2.74-.31.16-.48.42-.51.77Zm-3.11-6.66c.44-.62-.17-1.81-1.35-2.65-1.19-.85-2.51-1.04-2.94-.42-.44.62.17,1.81,1.35,2.65,1.19.85,2.51,1.04,2.94.42Zm-4.24,7.97c.53-.65-.1-2.05-1.41-3.13-1.32-1.08-2.81-1.44-3.34-.79-.53.65.1,2.05,1.41,3.13,1.32,1.08,2.81,1.44,3.34.79Z" style="fill: #fdfdfd; stroke-width: 0px;"/>
      <path d="m490.88,593.96l-.45.77c-.15.26.1.57.39.48,2.61-.83,5.36-2.05,7.82-2.02,6.93.11,9.72,7.98,5.36,13.25-2.4,2.9-5.4,4.67-9,5.32-2.28.4-4.39-.48-6.66-1.14-.6-.18-.96-.8-.8-1.4.97-3.71,3.42-5.47,7.37-5.27,1.54.08,2.28-.22,2.79-1.63.27-.72-.43-1.43-1.16-1.18-4.28,1.47-8.38,2.23-12.15-.46-6.01-4.28-1.28-11.75,4.2-14.11,3.13-1.35,5.89-1.38,8.28-.11.4.21.58.54.53.99-.33,3.26-2.11,5.15-5.33,5.68-.5.08-.94.39-1.19.83Z" style="fill: #fdfdfd; stroke-width: 0px;"/>
      <ellipse cx="206.2" cy="594.19" rx="1.37" ry="2.64" transform="translate(-396.97 415.96) rotate(-54.4)" style="fill: #0c0a2f; stroke-width: 0px;"/>
      <ellipse cx="201.73" cy="601.74" rx="1.52" ry="3.08" transform="translate(-390.9 374.65) rotate(-50.5)" style="fill: #0c0a2f; stroke-width: 0px;"/>
      <rect x="220.32" y="609.74" width="25.48" height="8.44" rx="1.33" ry="1.33" transform="translate(-417.71 525.82) rotate(-61.5)" style="fill: #fdfdfd; stroke-width: 0px;"/>
      <path d="m461.39,627.95l-.05,1.54c0,.41-.21.68-.59.83l-5.86,2.26c-.42.16-.64.02-.65-.43-.17-8.51-.28-17.06-.33-25.65-.01-2.49,3.17-2.69,4.78-1.56,7.03,4.92,13.92,10.08,20.69,15.47.15.12.15.35-.01.46l-5.61,4.09c-.34.25-.82.12-.99-.27-1.26-2.87-3.25-1.41-5.51-.31-1.83.89-3.64,1.84-5.42,2.83-.27.15-.44.43-.45.74Zm2.57-10.05c-.44-.61-.97-1.12-1.6-1.55-.34-.23-.8,0-.81.41l-.04,1.5c-.02.55.24.79.79.74l1.22-.12c.71-.07.86-.39.44-.98Z" style="fill: #fdfdfd; stroke-width: 0px;"/>
      <path d="m269.83,625.9c-.85-6.75-15.17-2.31-6.55,4.22,1.8,1.37,3.72,1.29,5.76-.24.2-.15.49-.11.64.09l4.07,5.44c.37.49.22,1.19-.31,1.49-4.43,2.55-9.37,3.86-14.09,1.08-7.33-4.31-9.8-13.71-3.47-20.15,7.09-7.22,17.15-3.89,21.59,4.22.45.82.24,1.4-.63,1.75l-6.31,2.5c-.31.13-.65-.07-.7-.4Z" style="fill: #fdfdfd; stroke-width: 0px;"/>
      <path d="m423.5,626.25c-.13-.36-.55-.53-.9-.35l-3.55,1.81c-.84.43-1.41.19-1.7-.7l-1.79-5.43c-.31-.93,0-1.55.93-1.86l16.14-5.44c.21-.07.45.01.57.19,1.25,1.89,2.12,3.93,2.61,6.13.15.66-.31,1.31-.99,1.38-.79.09-1.69-.13-2.42.24-1.1.55-1.39,1.57-.86,3.06,1.57,4.47,3.16,8.91,4.77,13.34.23.65.01,1.05-.66,1.22l-5.53,1.37c-.67.17-1.12-.07-1.36-.72l-5.26-14.24Z" style="fill: #fdfdfd; stroke-width: 0px;"/>
      <path d="m463.52,618.88l-1.22.12c-.55.05-.81-.19-.79-.74l.04-1.5c.01-.41.47-.64.81-.41.63.43,1.16.94,1.6,1.55.42.59.27.91-.44.98Z" style="fill: #0c0a2f; stroke-width: 0px;"/>
      <path d="m300.3,639.7l9.64,2.56c.39.1.61.51.49.9l-1.95,6.3c-.11.35-.46.56-.82.49l-17.48-3.68c-.39-.08-.64-.48-.54-.87l5.95-23.38c.09-.38.48-.61.86-.52l6.33,1.6c.38.09.61.47.52.85l-3.51,14.9c-.09.37.14.75.51.85Z" style="fill: #fdfdfd; stroke-width: 0px;"/>
      <rect x="395" y="623.39" width="8.24" height="24.96" rx=".89" ry=".89" transform="translate(-124.42 97.79) rotate(-12.1)" style="fill: #fdfdfd; stroke-width: 0px;"/>
      <path d="m374.24,627.04l2.48,23.7c.03.31-.2.59-.51.62l-6.7.65c-.3.03-.58-.2-.62-.5l-2.88-23.97c-.04-.33.21-.62.54-.64l7.09-.37c.3-.02.56.21.6.51Z" style="fill: #fdfdfd; stroke-width: 0px;"/>
      <path d="m344.04,639.38c.4,3.6,2.4,4.84,5.06,6.92.35.27.39.78.09,1.1-3.47,3.77-8.21,6.61-13.59,4.73-7.08-2.47-10.28-7.27-9.59-14.39.39-3.95,2.68-6.97,6.89-9.06,6.71-3.33,12.32-1.95,16.85,4.12.15.2.1.48-.1.62-1.74,1.2-5.9,3.4-5.61,5.96Zm-.26.43c.09-2.27-1.94-4.19-4.54-4.3-2.61-.11-4.8,1.63-4.89,3.89-.09,2.27,1.94,4.19,4.54,4.3,2.61.11,4.8-1.63,4.89-3.89Z" style="fill: #fdfdfd; stroke-width: 0px;"/>
      <ellipse cx="339.06" cy="639.6" rx="4.1" ry="4.72" transform="translate(-314.72 950.44) rotate(-87.5)" style="fill: #0c0a2f; stroke-width: 0px;"/>
    </g>
  </g>
</svg>